# xmcd
#
# Track frame offsets: 
#        150
#        21150
#        38174
#        53774
#        69973
#        94348
#        110248
#        131124
#        150399
#
# Disc length: 2252 seconds
#
# Revision: 0
# Processed by: cddbd v1.5.2PL0 Copyright (c) Steve Scherf et al.
# Submitted via: ExactAudioCopy v1.3
#
DISCID=7508ca09
DTITLE=洛天依 - LOST IN TIANYI
DYEAR=2018
DGENRE=
TTITLE0=8102
TTITLE1=啦哒哒
TTITLE2=最大化+
TTITLE3=风兮风兮
TTITLE4=斯芬克斯的谜底
TTITLE5=笔记本上的幻想世界
TTITLE6=斯人
TTITLE7=嘘つきは恋のはじまり
TTITLE8=Monologue
EXTD=
EXTT0=
EXTT1=
EXTT2=
EXTT3=
EXTT4=
EXTT5=
EXTT6=
EXTT7=
EXTT8=
PLAYORDER=
